<?xml version="1.0" encoding="UTF-8" standalone="no"?>
<!-- Created with Inkscape (http://www.inkscape.org/) -->

<svg
   width="500"
   height="100"
   viewBox="0 0 500 100"
   version="1.1"
   id="svg5"
   inkscape:version="1.2.2 (1:1.2.2+202305151914+b0a8486541)"
   sodipodi:docname="Bokeh.svg"
   xmlns:inkscape="http://www.inkscape.org/namespaces/inkscape"
   xmlns:sodipodi="http://sodipodi.sourceforge.net/DTD/sodipodi-0.dtd"
   xmlns:xlink="http://www.w3.org/1999/xlink"
   xmlns="http://www.w3.org/2000/svg"
   xmlns:svg="http://www.w3.org/2000/svg">
  <sodipodi:namedview
     id="namedview7"
     pagecolor="#505050"
     bordercolor="#ffffff"
     borderopacity="1"
     inkscape:showpageshadow="0"
     inkscape:pageopacity="0"
     inkscape:pagecheckerboard="1"
     inkscape:deskcolor="#505050"
     inkscape:document-units="px"
     showgrid="false"
     inkscape:zoom="1.6601562"
     inkscape:cx="-17.769412"
     inkscape:cy="174.38118"
     inkscape:window-width="2560"
     inkscape:window-height="1016"
     inkscape:window-x="0"
     inkscape:window-y="27"
     inkscape:window-maximized="1"
     inkscape:current-layer="svg5">
    <inkscape:grid
       type="xygrid"
       id="grid132"
       empspacing="4"
       originx="0"
       originy="0" />
  </sodipodi:namedview>
  <defs
     id="defs2">
    <linearGradient
       inkscape:collect="always"
       id="linearGradient5320">
      <stop
         style="stop-color:#ff5c5c;stop-opacity:0;"
         offset="0"
         id="stop5314" />
      <stop
         style="stop-color:#ffffff;stop-opacity:0.11186299;"
         offset="1"
         id="stop5318" />
    </linearGradient>
    <linearGradient
       inkscape:collect="always"
       id="linearGradient987">
      <stop
         style="stop-color:#ff5c5c;stop-opacity:1;"
         offset="0"
         id="stop983" />
      <stop
         style="stop-color:#7082c1;stop-opacity:1;"
         offset="0.50499111"
         id="stop991" />
      <stop
         style="stop-color:#85ff84;stop-opacity:1;"
         offset="1"
         id="stop985" />
    </linearGradient>
    <linearGradient
       inkscape:collect="always"
       xlink:href="#linearGradient987"
       id="linearGradient989"
       x1="0"
       y1="56"
       x2="496"
       y2="8"
       gradientUnits="userSpaceOnUse" />
    <filter
       inkscape:collect="always"
       style="color-interpolation-filters:sRGB"
       id="filter1266"
       x="-0.013298794"
       y="-0.072369036"
       width="1.0265976"
       height="1.1447381">
      <feGaussianBlur
         inkscape:collect="always"
         stdDeviation="6.9873291"
         id="feGaussianBlur1268" />
    </filter>
    <radialGradient
       inkscape:collect="always"
       xlink:href="#linearGradient5320"
       id="radialGradient5312"
       cx="250"
       cy="50"
       fx="250"
       fy="50"
       r="250"
       gradientTransform="matrix(0.99986522,-0.01641799,0.00728824,0.44385787,-0.3307157,31.911604)"
       gradientUnits="userSpaceOnUse" />
  </defs>
  <!-- <path
     id="rect292"
     style="fill:url(#linearGradient989);stroke-width:2;stroke-linecap:round;stroke-linejoin:round"
     d="M 0,0 H 500 V 100 H 0 Z"
     inkscape:label="Background" />-->
  <path
     id="path5308"
     style="display:inline;fill:url(#radialGradient5312);fill-opacity:1;stroke-width:2;stroke-linecap:round;stroke-linejoin:round"
     d="M 0,0 H 500 V 100 H 0 Z"
     inkscape:label="Vignette" /> 
  <path
     id="path1045"
     style="fill:#ffffff;fill-opacity:0.365135;stroke-width:2;stroke-linecap:round;stroke-linejoin:round;filter:url(#filter1266)"
     inkscape:transform-center-x="0.63887474"
     inkscape:transform-center-y="0.62839735"
     d="M -1117.1914 -163.82276 L -1123.2096 -145.09219 L -1113.186 -131.4718 L -1104.7363 -120.4191 L -1087.9278 -122.29064 L -1074.1359 -124.08147 L -1067.3509 -139.57341 L -1062.0036 -152.41189 L -1072.0272 -163.82276 L -1117.1914 -163.82276 z M -1028.6185 -163.82276 L -1036.4679 -154.5962 L -1031.7815 -140.62773 L -1027.7155 -129.21182 L -1013.2779 -126.28596 L -1001.3575 -124.10165 L -1003.3703 -119.27398 L -995.82867 -109.02841 L -989.47753 -100.71997 L -976.84083 -102.12237 L -966.46916 -103.46927 L -961.36403 -115.12228 L -957.34349 -124.77762 L -964.88011 -135.01814 L -971.23125 -143.32658 L -983.87299 -141.92419 L -986.07748 -141.63665 L -983.75192 -144.37081 L -990.92029 -163.82276 L -1028.6185 -163.82276 z M -275.2745 -138.30217 L -283.14911 -137.25794 L -289.60114 -136.27929 L -292.63294 -128.93941 L -295.01398 -122.85564 L -290.17118 -116.56503 L -286.09515 -111.45991 L -278.22558 -112.50918 L -271.76851 -113.48783 L -268.73671 -120.82771 L -266.35566 -126.90644 L -271.19847 -133.20209 L -275.2745 -138.30217 z M -572.15369 -134.53891 L -581.90489 -123.4963 L -589.75932 -114.26974 L -585.07289 -100.29623 L -581.00695 -88.885363 L -566.56429 -85.959501 L -554.64897 -83.770149 L -544.89273 -94.817802 L -537.0383 -104.04436 L -541.72977 -118.01283 L -545.79066 -129.42874 L -560.23333 -132.34956 L -572.15369 -134.53891 z M -788.33458 -122.32091 L -797.55104 -121.29686 L -805.11288 -120.31316 L -808.83579 -111.81807 L -811.7667 -104.78087 L -806.2681 -97.309829 L -801.63716 -91.251276 L -792.42069 -92.275328 L -784.85885 -93.259023 L -781.13595 -101.75411 L -778.20504 -108.79132 L -783.70364 -116.26236 L -788.33458 -122.32091 z M -1074.5747 -119.8087 L -1095.7469 -117.45288 L -1113.1154 -115.19795 L -1121.666 -95.685471 L -1126.7661 -83.432161 L -1127.7296 -84.73871 L -1131.6946 -89.924549 L -1139.5844 -89.04679 L -1147.7667 -88.209388 C -1147.7667 -80.137004 -1148.4808 -76.898736 -1147.7667 -68.90374 L -1143.0853 -63.324423 L -1135.1956 -64.197137 L -1128.7183 -65.039584 L -1125.5301 -72.313884 L -1124.6524 -74.422522 L -1115.7739 -62.355862 L -1105.1349 -48.437837 L -1083.9627 -50.788616 L -1076.2495 -51.787445 L -1076.7843 -50.506119 L -1068.6675 -39.473599 L -1061.822 -30.519451 L -1048.2067 -32.032828 L -1037.0329 -33.48567 L -1031.5343 -46.036612 L -1027.206 -56.438557 L -1035.3228 -67.471077 L -1042.1683 -76.42018 L -1055.7836 -74.906803 L -1057.1356 -74.730242 L -1051.3091 -88.728981 L -1063.9357 -105.89068 L -1074.5747 -119.8087 z M 88.980247 -117.98256 L 67.863591 -115.17777 L 50.545512 -112.55458 L 42.413632 -92.860501 L 36.02718 -76.55134 L 49.017001 -59.667095 L 59.953673 -45.976077 L 81.070329 -48.785913 L 98.388408 -51.409101 L 106.51524 -71.098137 L 112.9017 -87.412343 L 99.916919 -104.29659 L 88.980247 -117.98256 z M -149.26567 -113.29614 L -170.38737 -110.49134 L -187.70545 -107.86816 L -195.83229 -88.174076 L -202.21874 -71.85987 L -189.23396 -54.975626 L -178.29729 -41.289652 L -157.18064 -44.094444 L -139.86256 -46.722676 L -131.73068 -66.411713 L -125.34423 -82.725918 L -138.33405 -99.610163 L -149.26567 -113.29614 z M 11.041324 -69.831945 L -10.075332 -67.027153 L -27.398456 -64.398921 L -35.525291 -44.709884 L -41.911743 -28.395679 L -28.921922 -11.511434 L -17.990295 2.1745397 L 3.1263612 -0.63025257 L 20.449485 -3.2534396 L 28.57632 -22.947521 L 34.962772 -39.256682 L 21.972951 -56.145971 L 11.041324 -69.831945 z M -807.5696 -34.560168 L -815.45934 -33.68241 L -821.93659 -32.845008 L -825.12477 -25.570708 L -827.63194 -19.542422 L -822.92533 -13.145882 L -818.96029 -7.954998 L -811.07055 -8.8327567 L -804.59329 -9.6752033 L -801.40511 -16.949503 L -798.89795 -22.977788 L -803.60455 -29.374329 L -807.5696 -34.560168 z M -289.97948 -15.552151 L -299.49358 -4.3027145 L -307.14622 5.0903131 L -302.16217 18.952848 L -297.85409 30.282998 L -283.35593 32.896096 L -271.39521 34.828174 L -261.87607 23.578737 L -254.22342 14.18571 L -259.20748 0.31813044 L -263.51556 -11.006975 L -278.01876 -13.620073 L -289.97948 -15.552151 z M -1102.5369 -13.236684 L -1123.709 -10.885905 L -1141.0826 -8.6309731 L -1147.7667 11.834931 L -1145.9002 28.10878 L -1143.7411 44.216157 L -1133.1021 58.134182 L -1111.9299 55.778358 L -1094.5564 53.523426 L -1086.0108 34.01095 L -1079.2763 17.837993 L -1091.8979 0.67629637 L -1102.5369 -13.236684 z M -189.90489 -4.8122181 L -199.10118 -3.5914272 L -206.6378 -2.4513497 L -210.1791 6.1244541 L -212.95867 13.222193 L -207.30369 20.577206 L -202.54664 26.534867 L -193.35035 25.314076 L -185.81373 24.168954 L -182.27243 15.598195 L -179.49286 8.4954116 L -185.14785 1.1454433 L -189.90489 -4.8122181 z M -90.708067 0.95374884 L -103.3145 2.6285529 L -113.65591 4.1923759 L -118.5088 15.951316 L -122.32252 25.687376 L -114.56898 35.771512 L -108.04128 43.943749 L -95.429803 42.2639 L -85.093438 40.700077 L -80.240541 28.941137 L -76.426831 19.205077 L -84.180367 9.1209409 L -90.708067 0.95374884 z M 68.120865 10.730165 L 51.357691 12.959874 L 37.606137 15.04329 L 31.149061 30.676476 L 26.079248 43.62594 L 36.390391 57.034461 L 45.072131 67.900509 L 61.84035 65.675845 L 75.591904 63.587384 L 82.043935 47.954199 L 87.113748 35.004735 L 76.802605 21.596213 L 68.120865 10.730165 z M -733.14171 14.564054 L -742.89795 25.606663 L -750.74733 34.838263 L -746.06091 48.806734 L -741.99497 60.222643 L -727.55735 63.143461 L -715.63698 65.332813 L -705.88579 54.290204 L -698.03136 45.058604 L -702.71779 31.090132 L -706.78373 19.679269 L -721.22639 16.753406 L -733.14171 14.564054 z "
     transform="matrix(0.38717216,0,0,0.38717216,444.38331,63.42761)"
     inkscape:label="Bokeh" />
</svg>
